<svg xmlns="http://www.w3.org/2000/svg" fill-rule="evenodd" stroke-miterlimit="1.4" viewBox="0 0 1978 403" clip-rule="evenodd" stroke-linejoin="round"><text x="852.4" y="1369.3" fill="#38382E" font-family="Gotham-Light" font-size="75" transform="translate(283.006 -982.09)">artisanal codemongers</text><text x="1135.5" y="954" fill="#1A637D" font-family="Montserrat-SemiBold" font-size="300" transform="translate(-526.774 -670.37)">b<tspan x="1335 1504.2 1630.8" y="954 954 954">yte</tspan> f<tspan x="1985.7" y="954">a</tspan>ir</text><path fill="#1E637D" fill-rule="nonzero" d="M36 0C16 0 0 16.2 0 36v346.5c0 6.5 5.4 12 12 12h502c6.5 0 12-5.5 12-12V36c0-19.8-16.3-36-36-36H36zm0 24h454c7 0 12 5 12 12v47.7H24V36c0-7 5-12 12-12zm17.8 17.8c-6.6 0-12 5.4-12 12s5.4 12 12 12 12-5.4 12-12-5.4-12-12-12zm41.8 0c-6.6 0-12 5.4-12 12s5.4 12 12 12 12-5.4 12-12-5.4-12-12-12zm42 0c-6.8 0-12 5.4-12 12s5.2 12 12 12c6.5 0 11.8-5.4 11.8-12s-5.3-12-12-12zM23.8 107.6h478v263H24v-263zM297 137.3c-4.2.6-8 3.5-9.4 7.6L216 324c-1 1.8-1.4 3.8-1.4 5.8 0 6.5 5.4 12 12 12 5.4 0 10-3.8 11.5-9l72-179c1-1.5 1-3 1-4.7 0-6-5-11.2-12-11.2h-1zM178 167c-2 .5-3.7 1-5.3 2L77 229c-3.5 2-5.7 6-5.7 10s2.2 8 5.7 10l95.6 60c1.8 1 4 1.8 6.2 1.8 6.6 0 12-5.4 12-12 0-4-2-8-5.6-10.2l-79-49.6 79.4-49.6c3.7-2.2 6-6 6-10.4 0-6.6-5.4-12-12-12h-1.4zm168 0c-6.5.4-11.7 5.8-11.7 12 0 4.4 2.3 8.3 6 10.5l79.2 49.6-79.3 50c-3.5 2-5.6 6-5.6 10 0 6.8 5.4 12 12 12 2.2 0 4.4-.4 6.3-2l95-60c3.5-2 5.7-6 5.7-10s-2-8-5.7-10l-95-60c-2-1.2-4.5-2-7-2z"/></svg>